# AST/ASF file generated using VICON BodyLanguage
# -----------------------------------------------
:version 1.10
:name VICON
:units
  mass 1.0
  length 0.45
  angle deg
:documentation
   .ast/.asf automatically generated from VICON data using
   VICON BodyBuilder and BodyLanguage model FoxedUp or BRILLIANT.MOD
:root
   order TX TY TZ RX RY RZ
   axis XYZ
   position 0 0 0  
   orientation 0 0 0 
:bonedata
  begin
     id 1 
     name lhipjoint
     direction 0.70531 -0.63749 0.310071 
     length 2.59589 
     axis 0 0 0  XYZ
  end
  begin
     id 2 
     name lfemur
     direction 0.34202 -0.939693 0  
     length 6.19797  
     axis 0 0 20  XYZ
    dof rx ry rz
    limits (-160.0 20.0)
           (-70.0 70.0)
           (-60.0 70.0)
  end
  begin
     id 3 
     name ltibia
     direction 0.34202 -0.939693 0   
     length 7.80054   
     axis 0 0 20   XYZ
    dof rx
    limits (-10.0 170.0)
  end
  begin
     id 4 
     name lfoot
     direction 0.0828572 -0.227648 0.970212   
     length 1.88124   
     axis -90 7.62852e-016 20   XYZ
    dof rx rz
    limits (-45.0 90.0)
           (-70.0 20.0)
  end
  begin
     id 5 
     name ltoes
     direction 1.53544e-011 -4.219e-011 1   
     length 0.948015   
     axis -90 7.62852e-016 20   XYZ
    dof rx
    limits (-90.0 20.0)
  end
  begin
     id 6 
     name rhipjoint
     direction -0.730062 -0.614543 0.29891   
     length 2.69282  
     axis 0 0 0  XYZ 
  end
  begin
     id 7 
     name rfemur
     direction -0.34202 -0.939693 0   
     length 5.86298   
     axis 0 0 -20   XYZ
    dof rx ry rz
    limits (-160.0 20.0)
           (-70.0 70.0)
           (-70.0 60.0)
  end
  begin
     id 8 
     name rtibia
     direction -0.34202 -0.939693 0   
     length 7.72374   
     axis 0 0 -20   XYZ
    dof rx
    limits (-10.0 170.0)
 end
 begin
     id 9 
     name rfoot
     direction -0.0967421 -0.265797 0.959163   
     length 2.02368  
     axis -90 -7.62852e-016 -20   XYZ
    dof rx rz
    limits (-45.0 90.0)
           (-20.0 70.0)
  end
  begin
     id 10 
     name rtoes
     direction -1.53524e-011 -4.21768e-011 1   
     length 1.01373   
     axis -90 -7.62852e-016 -20   XYZ
    dof rx
    limits (-90.0 20.0)
  end
  begin
     id 11 
     name lowerback
     direction 0.00561702 0.992801 -0.119643   
     length 2.02816   
     axis 0 0 0   XYZ
    dof rx ry rz
    limits (-20.0 45.0)
           (-30.0 30.0)
           (-30.0 30.0)
  end
  begin
     id 12 
     name upperback
     direction 0.00155544 0.995735 -0.0922509   
     length 2.02265   
     axis 0 0 0   XYZ
    dof rx ry rz
    limits (-20.0 45.0)
           (-30.0 30.0)
           (-30.0 30.0)
  end
  begin
     id 13 
     name thorax
     direction -0.000937535 0.999317 -0.0369292   
     length 2.04823   
     axis 0 0 0   XYZ
    dof rx ry rz
    limits (-20.0 45.0)
           (-30.0 30.0)
           (-30.0 30.0)
  end
  begin
     id 14 
     name lowerneck
     direction -0.0813151 0.981659 0.172436   
     length 1.8875   
     axis 0 0 0   XYZ
    dof rx ry rz
    limits (-20.0 45.0)
           (-30.0 30.0)
           (-30.0 30.0)
  end
  begin
     id 15 
     name upperneck
     direction 0.119359 0.955672 -0.269157   
     length 1.92801   
     axis 0 0 0   XYZ
    dof rx ry rz
    limits (-20.0 45.0)
           (-30.0 30.0)
           (-30.0 30.0)
  end
  begin
     id 16
     name head
     direction 0.0421007 0.992672 -0.113268  
     length 1.95809  
     axis 0 0 0   XYZ
    dof rx ry rz
    limits (-20.0 45.0)
           (-30.0 30.0)
           (-30.0 30.0)
  end
  begin
     id 17 
     name lclavicle
     direction 0.944093 0.32865 -0.0260136  
     length 3.84992  
     axis 0 0 0   XYZ
    dof ry rz
    limits (-20.0 10.0)
           (0.0 20.0)
  end
  begin
     id 18 
     name lhumerus
     direction 1 -4.48979e-011 -1.27712e-029   
     length 5.53593   
     axis 180 -30 -90   XYZ
    dof rx ry rz
    limits (-60.0 90.0)
           (-90.0 90.0)
           (-90.0 90.0)
  end
  begin
     id 19
     name lradius
     direction 1 -4.48966e-011 1.00051e-028   
     length 3.13345   
     axis 180 -30 -90   XYZ
    dof rx
    limits (-10.0 170.0)
  end
  begin
     id 20
     name lwrist
     direction 1 -4.4896e-011 2.56952e-028   
     length 1.56673   
     axis -5.12785e-016 90 90   XYZ
    dof ry
    limits (-180.0 0.0)
 end
  begin
     id 21 
     name lhand
     direction 1 -4.48934e-011 5.13905e-028   
     length 0.713374   
     axis -3.27915e-016 90 90   XYZ
    dof rx rz
    limits (-90.0 90.0)
           (-45.0 45.0)
  end
  begin
     id 22 
     name lfingers
     direction 1 -4.48973e-011 1.02781e-027   
     length 0.575141   
     axis -6.5583e-016 90 90   XYZ
    dof rx
    limits (0.0 90.0)
  end
  begin
     id 23
     name lthumb
     direction 0.707107 -6.34883e-011 0.707107   
     length 0.82579   
     axis -90 45 2.85299e-015   XYZ
    dof rx rz
    limits (-45.0 45.0)
           (-45.0 45.0)
  end
  begin
     id 24 
     name rclavicle
     direction -0.936895 0.34884 0.0232243   
     length 3.53304  
     axis 0 0 0   XYZ 
    dof ry rz
    limits (-10.0 20.0)
           (-20.0 0.0)
  end
  begin
     id 25 
     name rhumerus
     direction -1 -4.48965e-011 1.05514e-027  
     length 5.4685   
     axis 180 30 90   XYZ
    dof rx ry rz
    limits (-90.0 60.0)
           (-90.0 90.0)
           (-90.0 90.0)
  end
  begin
     id 26 
     name rradius
     direction -1 -4.48964e-011 -1.1079e-027   
     length 3.22411   
     axis 180 30 90   XYZ
    dof rx
    limits (-10.0 170.0)
  end
  begin
     id 27 
     name rwrist
     direction -1 -4.48973e-011 2.56952e-028   
     length 1.61206   
     axis -5.12785e-016 -90 -90   XYZ
    dof ry
    limits (-180.0 0.0)
  end
  begin
     id 28
     name rhand
     direction -1 -4.48957e-011 5.13905e-028   
     length 0.74528   
     axis -3.27915e-016 -90 -90   XYZ
    dof rx rz
    limits (-90.0 90.0)
           (-45.0 45.0)
  end
  begin
     id 29
     name rfingers
     direction -1 -4.4901e-011 1.02781e-027   
     length 0.600864   
     axis -6.5583e-016 -90 -90   XYZ
    dof rx
    limits (0.0 90.0)
  end
  begin
     id 30
     name rthumb
     direction -0.707107 -6.34972e-011 0.707107   
     length 0.862724   
     axis -90 -45 -2.85299e-015   XYZ
    dof rx rz
    limits (-45.0 45.0)
           (-45.0 45.0)
  end
:hierarchy
  begin
    root lhipjoint rhipjoint lowerback
    lhipjoint lfemur
    lfemur ltibia
    ltibia lfoot
    lfoot ltoes
    rhipjoint rfemur
    rfemur rtibia
    rtibia rfoot
    rfoot rtoes
    lowerback upperback
    upperback thorax
    thorax lowerneck lclavicle rclavicle
    lowerneck upperneck
    upperneck head
    lclavicle lhumerus
    lhumerus lradius
    lradius lwrist
    lwrist lhand lthumb
    lhand lfingers
    rclavicle rhumerus
    rhumerus rradius
    rradius rwrist
    rwrist rhand rthumb
    rhand rfingers
  end

#!OML:ASF G:\Work\Work\Patient Classification 1\Liu\Session 1\Liu.ASF
:FULLY-SPECIFIED
:DEGREES
259
root 10.2364 15.8297 -2.09578 5.16818 6.38687 7.62907
lowerback -1.62796 -3.48846 -7.68128
upperback -0.375525 -4.50896 -0.835771
thorax 1.04741 -2.27654 3.29091
lowerneck -24.8041 -5.44543 -13.0484
upperneck 26.3367 -6.41827 11.9531
head 13.9817 -2.49357 5.81347
rclavicle -3.39052e-014 2.38542e-015
rhumerus -49.4513 15.4111 -93.2672
rradius 39.2457
rwrist -11.6808
rhand -16.5551 19.8201
rfingers 7.12502
rthumb 9.66464 -9.93819
lclavicle -3.39052e-014 2.38542e-015
lhumerus -17.3752 -14.6203 81.5394
lradius 37.4704
lwrist 5.71808
lhand -17.2852 34.4566
lfingers 7.12502
lthumb 8.96015 64.2464
rfemur -36.5316 2.61531 10.0085
rtibia 22.7049
rfoot -9.75421 -11.5302
rtoes -10.5457
lfemur 24.7417 0.484478 -29.6365
ltibia -6.36111e-015
lfoot -7.69036 -2.84004
ltoes -6.90583
260
root 10.2133 15.8383 -1.83486 4.87364 6.43974 7.37785
lowerback -1.65733 -3.53679 -7.50628
upperback -0.407554 -4.57616 -0.75234
thorax 1.03166 -2.30853 3.27666
lowerneck -24.9022 -5.31518 -12.904
upperneck 26.6622 -6.2618 11.826
head 14.1037 -2.42876 5.78422
rclavicle 4.83047e-014 1.03368e-014
rhumerus -49.7599 15.3053 -93.4323
rradius 38.697
rwrist -11.4719
rhand -16.3917 19.2656
rfingers 7.12502
rthumb 9.82227 -10.4853
lclavicle 4.83047e-014 1.03368e-014
lhumerus -17.9876 -14.3209 81.667
lradius 38.0219
lwrist 6.02258
lhand -17.5591 34.7243
lfingers 7.12502
lthumb 8.6958 64.5252
rfemur -36.1235 1.85101 10.9906
rtibia 23.6347
rfoot -5.9309 -10.8486
rtoes -18.0277
lfemur 25.827 0.64127 -28.9993
ltibia 0
lfoot -6.29527 -2.54005
ltoes -7.6716
261
root 10.1921 15.8587 -1.5711 4.546 6.3626 6.97531
lowerback -1.82886 -3.54861 -7.10455
upperback -0.294661 -4.57998 -0.676383
thorax 1.22018 -2.31822 3.1171
lowerneck -24.9309 -5.24879 -12.7107
upperneck 26.778 -6.19054 11.6419
head 14.1316 -2.40277 5.69225
rclavicle 1.9953e-014 1.59028e-015
rhumerus -49.8266 15.2765 -93.6025
rradius 38.2721
rwrist -11.2993
rhand -16.2516 19.0874
rfingers 7.12502
rthumb 9.9574 -10.657
lclavicle 1.9953e-014 1.59028e-015
lhumerus -18.1908 -14.027 81.6882
lradius 38.3141
lwrist 6.79088
lhand -18.1756 34.8512
lfingers 7.12502
lthumb 8.1009 64.6759
rfemur -35.8291 2.18209 11.4834
rtibia 24.496
rfoot -3.37095 -10.3806
rtoes -19.3808
lfemur 26.8708 0.926428 -28.2105
ltibia 1.90833e-014
lfoot -3.66601 -1.11989
ltoes -8.33613
262
root 10.168 15.8713 -1.31461 4.15705 6.12618 6.36761
lowerback -1.78458 -3.48201 -6.51325
upperback -0.219229 -4.50557 -0.550691
thorax 1.23013 -2.2812 2.92373
lowerneck -24.9423 -5.24242 -12.7054
upperneck 26.8873 -6.19272 11.6427
head 14.1813 -2.40426 5.69754
rclavicle 3.6887e-014 7.95139e-016
rhumerus -49.8965 15.1778 -93.6946
rradius 37.8963
rwrist -10.9817
rhand -15.8719 19.2544
rfingers 7.12502
rthumb 10.3237 -10.4722
lclavicle 3.6887e-014 7.95139e-016
lhumerus -18.3153 -13.7417 81.6852
lradius 38.3569
lwrist 7.33244
lhand -18.3939 34.7612
lfingers 7.12502
lthumb 7.89013 64.594
rfemur -35.4143 3.15896 12.0002
rtibia 25.2588
rfoot -1.58896 -10.143
rtoes -16.1458
lfemur 27.987 1.36802 -27.2079
ltibia 9.54166e-014
lfoot -1.07022 0.641802
ltoes -6.89605
263
root 10.1427 15.8812 -1.06091 3.80411 6.18574 5.80752
lowerback -1.51788 -3.53352 -6.019
upperback -0.306805 -4.60901 -0.375003
thorax 0.97629 -2.32282 2.84827
lowerneck -24.9684 -5.17764 -12.7967
upperneck 27.1904 -6.10463 11.7054
head 14.3101 -2.37119 5.77618
rclavicle -1.02374e-014 3.69739e-014
rhumerus -50.2497 15.2034 -93.8409
rradius 37.4637
rwrist -10.6654
rhand -15.6442 19.4727
rfingers 7.12502
rthumb 10.5434 -10.2429
lclavicle -1.02374e-014 3.69739e-014
lhumerus -18.9388 -13.2591 81.8691
lradius 38.5677
lwrist 7.41796
lhand -18.6101 35.3791
lfingers 7.12502
lthumb 7.68151 65.2195
rfemur -34.7115 3.18174 12.8497
rtibia 25.9629
rfoot 0.410023 -9.43569
rtoes -14.5882
lfemur 26.1182 1.60528 -26.2667
ltibia 5.25115
lfoot -0.570065 1.18051
ltoes -3.80008
264
root 10.1306 15.892 -0.796832 3.47507 6.37135 5.36465
lowerback -1.47072 -3.626 -5.47073
upperback -0.341767 -4.74677 -0.265772
thorax 0.891873 -2.38758 2.65702
lowerneck -24.8849 -5.1288 -12.8124
upperneck 27.3973 -6.04619 11.675
head 14.3721 -2.35721 5.78926
rclavicle -9.19379e-016 1.47101e-014
rhumerus -50.5189 15.2941 -94.0207
rradius 36.9012
rwrist -10.4324
rhand -15.2043 18.6883
rfingers 7.12502
rthumb 10.9677 -11.0052
lclavicle -9.19379e-016 1.47101e-014
lhumerus -19.689 -12.7298 82.1206
lradius 38.8566
lwrist 7.35328
lhand -18.878 35.2591
lfingers 7.12502
lthumb 7.42296 65.1088
rfemur -33.839 1.65322 14.0983
rtibia 26.679
rfoot 1.93859 -7.47318
rtoes -15.761
lfemur 23.6717 1.74874 -25.4865
ltibia 11.5262
lfoot 0.150448 1.78972
ltoes -0.601772
265
root 10.1195 15.9128 -0.540577 3.20003 6.45489 4.63785
lowerback -1.36312 -3.65117 -4.60557
upperback -0.396318 -4.80302 -0.0873908
thorax 0.725123 -2.40959 2.37022
lowerneck -24.8972 -5.10087 -12.7817
upperneck 27.6069 -6.01044 11.6016
head 14.4561 -2.35119 5.77182
rclavicle -5.41812e-014 -1.98785e-014
rhumerus -50.6168 15.2757 -94.0884
rradius 36.4445
rwrist -10.3215
rhand -14.7414 17.8741
rfingers 7.12502
rthumb 11.4141 -11.7952
lclavicle -5.41812e-014 -1.98785e-014
lhumerus -20.3315 -12.2182 82.3258
lradius 39.0447
lwrist 7.32708
lhand -18.6693 33.5874
lfingers 7.12502
lthumb 7.62438 63.43
rfemur -33.129 0.121771 15.6782
rtibia 27.468
rfoot 2.09449 -5.6949
rtoes -16.661
lfemur 21.6625 2.4129 -24.2199
ltibia 16.6266
lfoot 1.71743 2.78035
ltoes 2.41996
266
root 10.1013 15.9337 -0.29201 2.90044 6.11869 3.598
lowerback -1.185 -3.53565 -3.51419
upperback -0.4329 -4.67414 0.167373
thorax 0.512792 -2.33988 2.04592
lowerneck -25.1103 -4.99595 -12.5605
upperneck 27.913 -5.87145 11.3793
head 14.5951 -2.296 5.68413
rclavicle -6.70774e-014 -1.19271e-015
rhumerus -50.754 15.0995 -94.0855
rradius 36.1747
rwrist -9.89281
rhand -14.7909 18.1594
rfingers 7.12502
rthumb 11.3664 -11.5126
lclavicle -6.70774e-014 -1.19271e-015
lhumerus -20.9373 -11.8273 82.4701
lradius 39.2599
lwrist 7.5786
lhand -18.288 33.0424
lfingers 7.12502
lthumb 7.9924 62.8713
rfemur -32.5248 -0.236175 17.3449
rtibia 28.2069
rfoot 1.66714 -4.75506
rtoes -15.1376
lfemur 19.7117 3.42135 -22.6516
ltibia 21.4305
lfoot 3.27918 4.4339
ltoes 5.76539
267
root 10.0775 15.9479 -0.0592522 2.64936 5.92629 2.8257
lowerback -1.00441 -3.46285 -2.75663
upperback -0.432235 -4.59226 0.3329
thorax 0.361892 -2.29661 1.81047
lowerneck -25.0135 -4.91992 -12.3415
upperneck 27.9222 -5.8132 11.2254
head 14.5537 -2.27028 5.5902
rclavicle -2.08786e-014 -3.57812e-015
rhumerus -50.7957 14.7492 -93.9869
rradius 35.857
rwrist -9.21994
rhand -14.5875 18.5712
rfingers 7.12502
rthumb 11.5626 -11.0898
lclavicle -2.08786e-014 -3.57812e-015
lhumerus -21.4887 -11.5979 82.6016
lradius 39.4282
lwrist 7.77983
lhand -18.0411 33.5085
lfingers 7.12502
lthumb 8.23068 63.3281
rfemur -31.7814 -0.27383 18.5576
rtibia 28.719
rfoot 1.30145 -4.08359
rtoes -12.8244
lfemur 17.7169 4.3992 -21.2988
ltibia 26.2309
lfoot 5.18743 6.37244
ltoes 9.77691
